<?xml version="1.0" standalone="no"?>
<!DOCTYPE svg PUBLIC "-//W3C//DTD SVG 20010904//EN"
 "http://www.w3.org/TR/2001/REC-SVG-20010904/DTD/svg10.dtd">
<svg version="1.0" xmlns="http://www.w3.org/2000/svg"
 width="700.000000pt" height="700.000000pt" viewBox="0 0 700.000000 700.000000"
 preserveAspectRatio="xMidYMid meet">
<metadata>
Created by potrace 1.14, written by Peter Selinger 2001-2017
</metadata>
<g transform="translate(0.000000,700.000000) scale(0.100000,-0.100000)"
fill="#000000" stroke="none">
<path d="M3249 6996 c-2 -2 -44 -7 -94 -10 -49 -4 -99 -9 -110 -11 -11 -2 -41
-7 -67 -10 -40 -5 -164 -27 -283 -50 -108 -21 -427 -120 -487 -151 -15 -8 -29
-14 -30 -13 -16 5 -298 -129 -443 -210 -131 -74 -384 -252 -499 -351 -297
-256 -520 -515 -721 -835 -88 -140 -207 -375 -267 -530 -52 -132 -139 -398
-151 -465 -3 -14 -15 -72 -27 -130 -12 -58 -23 -116 -25 -130 -2 -14 -6 -41
-9 -60 -23 -143 -30 -260 -30 -510 0 -129 3 -266 7 -305 15 -133 17 -150 22
-175 2 -14 7 -45 10 -70 19 -139 86 -403 147 -580 220 -631 629 -1196 1163
-1608 400 -308 894 -535 1395 -640 93 -20 122 -25 205 -37 22 -3 54 -7 70 -10
17 -2 62 -7 100 -10 39 -3 90 -8 115 -11 54 -5 377 -5 440 1 25 2 81 6 125 10
44 3 87 8 95 10 8 2 38 6 65 10 150 18 393 76 594 142 l144 47 -28 21 c-250
181 -434 413 -534 675 -27 69 -69 223 -76 275 -23 166 -25 294 -9 415 4 30 8
62 9 70 1 8 5 29 9 45 3 17 9 43 12 59 2 16 18 65 33 110 82 235 199 417 378
586 109 103 194 164 326 233 84 45 289 121 352 130 17 3 62 11 100 17 101 18
353 15 450 -5 44 -9 91 -18 105 -21 50 -10 200 -64 267 -96 195 -92 417 -275
543 -446 l54 -73 23 63 c105 285 180 652 198 958 10 179 6 437 -10 556 -2 21
-8 68 -11 104 -3 36 -8 74 -10 85 -3 11 -11 58 -20 105 -31 177 -88 379 -179
630 -41 115 -162 362 -248 505 -175 296 -422 594 -687 831 -197 176 -484 371
-729 494 -248 124 -602 249 -836 296 -80 15 -263 44 -316 49 -35 4 -75 9 -89
12 -28 5 -526 14 -531 9z"/>
<path d="M6684 2275 c-4 -11 -18 -44 -30 -73 -13 -29 -24 -55 -24 -58 0 -14
-148 -298 -202 -388 -94 -156 -238 -354 -352 -486 -127 -146 -395 -394 -561
-517 -65 -49 -256 -173 -265 -173 -6 0 -10 -4 -10 -9 0 -5 -10 -13 -22 -17
-13 -3 -30 -12 -38 -19 -22 -19 -269 -142 -373 -185 -49 -21 -88 -41 -88 -46
1 -13 144 -89 236 -125 89 -35 245 -77 315 -85 25 -3 56 -7 70 -10 28 -5 229
-5 275 0 307 35 566 142 785 325 275 229 448 534 505 891 13 83 14 366 2 435
-21 111 -31 148 -61 240 -34 100 -94 229 -135 290 -18 27 -21 28 -27 10z"/>
</g>
</svg>
