<?xml version="1.0" standalone="no"?>
<!DOCTYPE svg PUBLIC "-//W3C//DTD SVG 20010904//EN"
 "http://www.w3.org/TR/2001/REC-SVG-20010904/DTD/svg10.dtd">
<svg version="1.0" xmlns="http://www.w3.org/2000/svg"
 width="700.000000pt" height="700.000000pt" viewBox="0 0 700.000000 700.000000"
 preserveAspectRatio="xMidYMid meet">
<metadata>
Created by potrace 1.14, written by Peter Selinger 2001-2017
</metadata>
<g transform="translate(0.000000,700.000000) scale(0.100000,-0.100000)"
fill="#000000" stroke="none">
<path d="M3278 6996 c-1 -2 -42 -6 -89 -10 -47 -4 -95 -8 -105 -10 -10 -2 -46
-7 -79 -12 -33 -4 -62 -8 -65 -9 -3 0 -27 -5 -55 -10 -27 -4 -57 -10 -65 -12
-8 -2 -27 -5 -41 -7 -101 -16 -486 -134 -604 -186 -388 -171 -643 -327 -928
-566 -165 -138 -409 -390 -502 -518 -16 -23 -32 -43 -35 -46 -29 -26 -191
-274 -265 -405 -197 -353 -328 -724 -395 -1119 -22 -132 -25 -150 -37 -286
-15 -164 -8 -589 12 -711 2 -13 6 -46 10 -74 9 -76 16 -116 25 -160 5 -22 11
-53 14 -70 17 -93 52 -225 92 -350 178 -549 480 -1036 889 -1435 79 -77 115
-109 225 -204 79 -68 418 -306 436 -306 2 0 23 -12 46 -26 60 -38 299 -156
401 -198 175 -72 465 -162 614 -191 79 -15 253 -44 293 -49 169 -22 559 -28
735 -13 654 59 1263 293 1790 687 152 114 216 169 344 294 83 81 121 122 252
270 61 70 289 385 289 400 0 2 19 35 42 72 222 365 405 911 453 1349 4 33 9
71 11 85 9 46 11 524 4 605 -15 153 -21 210 -25 225 -2 8 -7 35 -10 60 -40
285 -160 664 -303 960 -174 359 -389 658 -681 951 -171 170 -235 226 -391 341
-369 272 -754 457 -1195 573 -129 34 -234 56 -330 71 -27 4 -57 9 -65 10 -8 2
-42 6 -76 9 -33 4 -74 9 -90 11 -33 5 -540 14 -546 10z m437 -880 c77 -7 208
-24 246 -31 131 -24 328 -77 424 -113 28 -11 77 -30 110 -42 33 -13 120 -54
194 -92 708 -360 1224 -1036 1380 -1803 11 -55 23 -118 26 -140 3 -23 7 -50 9
-60 18 -91 25 -421 12 -542 -3 -35 -9 -89 -12 -121 -4 -49 -43 -257 -58 -312
-19 -73 -29 -107 -55 -185 -121 -376 -350 -744 -641 -1033 -295 -293 -642
-507 -1036 -637 -84 -28 -255 -72 -310 -80 -22 -4 -46 -8 -54 -10 -8 -2 -33
-6 -55 -9 -22 -3 -69 -10 -105 -15 -118 -15 -341 -19 -485 -8 -443 35 -825
162 -1210 402 -44 27 -84 53 -90 57 -5 5 -41 32 -80 60 -154 114 -323 276
-443 423 -31 39 -62 76 -69 82 -32 34 -189 283 -236 374 -141 271 -235 560
-272 829 -3 25 -8 52 -10 60 -23 92 -23 545 1 664 2 11 7 41 10 66 3 25 17 95
30 155 14 61 28 121 30 135 10 47 87 265 125 351 329 751 979 1303 1770 1504
53 14 113 27 134 31 21 3 47 8 59 10 11 2 41 7 66 10 25 3 54 8 64 10 11 2 60
6 110 10 50 3 92 7 93 8 5 5 262 -1 328 -8z"/>
<path d="M3457 5834 c-1 -1 -47 -4 -102 -8 -150 -9 -309 -30 -350 -46 -12 -5
-37 -11 -56 -14 -19 -3 -85 -22 -148 -41 -527 -168 -965 -504 -1269 -974 -65
-101 -172 -310 -208 -406 -64 -174 -124 -413 -139 -555 -3 -30 -8 -73 -10 -95
-6 -53 -6 -339 -1 -390 3 -22 8 -65 11 -95 11 -100 54 -294 91 -409 328 -1036
1332 -1714 2409 -1626 381 31 771 164 1087 371 56 37 105 70 108 73 3 3 32 26
65 51 79 59 318 297 382 380 177 230 289 435 380 695 13 39 26 77 28 85 47
177 49 186 70 315 19 124 25 198 26 350 5 889 -511 1716 -1316 2104 -171 83
-432 171 -554 187 -25 3 -49 8 -52 10 -11 7 -149 24 -233 30 -100 6 -216 11
-219 8z m281 -318 c18 -3 52 -8 75 -11 161 -23 334 -74 364 -107 46 -50 52
-85 38 -201 -44 -354 -240 -669 -487 -781 -383 -174 -794 116 -918 648 -50
215 -40 308 38 353 45 26 252 77 377 93 50 6 97 13 105 15 26 4 373 -3 408 -9z
m-1464 -530 c67 -43 259 -303 332 -447 81 -162 107 -260 106 -397 -1 -88 -14
-139 -54 -214 -94 -177 -315 -278 -611 -280 -152 0 -298 31 -433 93 -99 45
-127 100 -104 201 80 355 256 678 523 964 34 36 78 75 97 85 42 22 106 20 144
-5z m2594 5 c38 -20 161 -146 239 -246 152 -196 257 -392 332 -623 85 -260 76
-322 -55 -382 -142 -66 -264 -90 -446 -91 -396 -1 -649 195 -650 501 -1 181
82 388 246 615 50 69 68 91 136 168 67 76 128 94 198 58z m-1229 -927 c166
-38 306 -152 385 -314 182 -376 -90 -820 -511 -832 -163 -5 -340 73 -448 195
-56 63 -121 193 -135 267 -26 135 -9 256 51 379 86 174 256 295 448 318 25 3
47 6 49 8 6 5 102 -7 161 -21z m1526 -733 c127 -26 253 -77 291 -117 50 -52
52 -101 13 -239 -100 -349 -276 -653 -515 -891 -66 -66 -89 -83 -120 -88 -76
-12 -106 3 -185 96 -387 451 -468 850 -222 1092 47 46 101 79 184 112 66 25
74 27 174 44 126 21 248 18 380 -9z m-2925 -16 c134 -24 257 -83 336 -160 115
-113 157 -250 130 -430 -25 -172 -153 -415 -331 -629 -86 -103 -118 -126 -174
-126 -57 0 -84 16 -162 97 -237 244 -402 526 -498 851 -44 149 -48 190 -22
240 22 43 45 59 141 99 48 20 186 55 260 66 36 6 279 0 320 -8z m1420 -717
c117 -38 209 -100 300 -204 115 -132 214 -349 244 -539 23 -143 23 -176 1
-225 -22 -49 -66 -73 -195 -105 -194 -49 -285 -60 -515 -60 -224 0 -343 15
-535 67 -163 44 -193 85 -176 238 3 30 8 66 11 80 3 14 8 41 11 60 9 55 63
209 96 275 171 342 473 506 758 413z"/>
</g>
</svg>
